<svg width="66" height="66" viewBox="0 0 66 66" fill="none" xmlns="http://www.w3.org/2000/svg">
<circle cx="33" cy="33" r="33" fill="#EDEDED"/>
<path d="M33 14.3281C43.3125 14.3281 51.6562 22.6719 51.6562 32.9688C51.6562 43.2656 43.3125 51.625 33 51.625C22.6875 51.625 14.3438 43.2812 14.3438 32.9844C14.3438 22.6875 22.6875 14.3281 33 14.3281Z" fill="#E74D89"/>
<path d="M33 52.9531C21.9688 52.9531 13 44 13 32.9844C13 21.9531 21.9688 13 33 13C44.0312 13 53 21.9531 53 32.9688C53 43.9844 44.0312 52.9531 33 52.9531ZM49.8594 35.7031C49.2812 35.5156 44.5781 34.125 39.2188 34.9688C41.4531 41.0938 42.3594 46.0938 42.5312 47.125C46.375 44.5469 49.1094 40.4531 49.8594 35.7031ZM39.6719 48.7031C39.4219 47.2031 38.4219 41.9844 36.0312 35.7656C36 35.7812 35.9531 35.7969 35.9219 35.7969C26.2812 39.1562 22.8281 45.8281 22.5156 46.4531C25.4062 48.7031 29.0469 50.0469 33 50.0469C35.3594 50.0625 37.625 49.5781 39.6719 48.7031ZM20.3125 44.4062C20.7031 43.75 25.3906 36 34.2031 33.1406C34.4219 33.0625 34.6562 33 34.875 32.9375C34.4531 31.9688 33.9844 31 33.4844 30.0469C24.9531 32.5938 16.6719 32.4844 15.9219 32.4688C15.9219 32.6406 15.9062 32.8125 15.9062 32.9844C15.9219 37.375 17.5781 41.375 20.3125 44.4062ZM16.2812 29.5C17.0469 29.5156 24.0781 29.5469 32.0781 27.4219C29.25 22.3906 26.1875 18.1719 25.75 17.5625C20.9531 19.8125 17.3906 24.2188 16.2812 29.5ZM29 16.4062C29.4688 17.0312 32.5781 21.25 35.375 26.3906C41.4531 24.1094 44.0156 20.6719 44.3281 20.2344C41.3125 17.5625 37.3438 15.9375 33 15.9375C31.625 15.9375 30.2812 16.1094 29 16.4062ZM46.2188 22.2031C45.8594 22.6875 43 26.3594 36.6875 28.9375C37.0781 29.75 37.4688 30.5781 37.8281 31.4062C37.9531 31.7031 38.0781 32 38.2031 32.2812C43.8906 31.5625 49.5312 32.7188 50.0938 32.8281C50.0469 28.8125 48.6094 25.1094 46.2188 22.2031Z" fill="#B2215A"/>
</svg>
