<svg width="40" height="40" viewBox="0 0 40 40" fill="none" xmlns="http://www.w3.org/2000/svg">
<path d="M26.6667 26.6666C30.3486 26.6666 33.3333 23.6819 33.3333 20C33.3333 16.3181 30.3486 13.3333 26.6667 13.3333C22.9848 13.3333 20 16.3181 20 20C20 23.6819 22.9848 26.6666 26.6667 26.6666Z" fill="#19BCFE"/>
<path fill-rule="evenodd" clip-rule="evenodd" d="M13.3332 40C15.1013 40 16.797 39.2976 18.0472 38.0474C19.2975 36.7972 19.9998 35.1015 19.9998 33.3334V26.6667H13.3332C11.5651 26.6667 9.86937 27.3691 8.61913 28.6193C7.36888 29.8696 6.6665 31.5652 6.6665 33.3334C6.6665 35.1015 7.36888 36.7972 8.61913 38.0474C9.86937 39.2976 11.5651 40 13.3332 40Z" fill="#09CF83"/>
<path fill-rule="evenodd" clip-rule="evenodd" d="M13.3332 26.6666H19.9998V13.3333H13.3332C11.5651 13.3333 9.86937 14.0357 8.61913 15.2859C7.36888 16.5362 6.6665 18.2319 6.6665 20C6.6665 21.7681 7.36888 23.4638 8.61913 24.714C9.86937 25.9643 11.5651 26.6666 13.3332 26.6666Z" fill="#A259FF"/>
<path fill-rule="evenodd" clip-rule="evenodd" d="M13.3332 13.3333H19.9998V0H13.3332C11.5651 0 9.86937 0.702379 8.61913 1.95262C7.36888 3.20286 6.6665 4.89856 6.6665 6.66667C6.6665 8.43478 7.36888 10.1305 8.61913 11.3807C9.86937 12.631 11.5651 13.3333 13.3332 13.3333Z" fill="#F24E1E"/>
<path fill-rule="evenodd" clip-rule="evenodd" d="M26.6667 13.3333H20V0H26.6667C28.4348 0 30.1305 0.702379 31.3807 1.95262C32.631 3.20286 33.3333 4.89856 33.3333 6.66667C33.3333 8.43478 32.631 10.1305 31.3807 11.3807C30.1305 12.631 28.4348 13.3333 26.6667 13.3333Z" fill="#FF7262"/>
</svg>
