<svg width="40" height="40" viewBox="0 0 40 40" fill="none" xmlns="http://www.w3.org/2000/svg">
<path d="M0 0H40V40H0V0Z" fill="#0C0824"/>
<path d="M3.95875 4.39625H36.0413V35.6037H3.95875V4.39625ZM2.5 37.0625H37.5V2.9375H2.5V37.0625ZM26.0963 16.9375C24.9438 16.9375 24.55 17.5212 24.55 18.0025C24.55 18.5275 24.8125 18.8925 26.3587 19.6938C28.6488 20.8025 29.3587 21.8663 29.3587 23.4275C29.3587 25.7612 27.58 27.015 25.1737 27.015C24.1411 27.0533 23.1146 26.8387 22.1838 26.39C22.0812 26.3462 22.0675 26.2737 22.0675 26.1562V24.01C22.0675 23.8638 22.14 23.82 22.2425 23.8937C23.1167 24.4559 24.1344 24.7545 25.1737 24.7537C26.3263 24.7537 26.8075 24.2725 26.8075 23.6162C26.8075 23.0912 26.4725 22.625 24.9988 21.8662C22.9275 20.875 22.0675 19.8663 22.0675 18.1913C22.0675 16.31 23.54 14.75 26.0925 14.75C26.981 14.7118 27.8682 14.8508 28.7025 15.1588C28.7505 15.1899 28.7894 15.2334 28.8151 15.2845C28.8408 15.3357 28.8524 15.3928 28.8488 15.45V17.45C28.8488 17.5663 28.7762 17.64 28.63 17.5962C27.8589 17.1524 26.9821 16.9256 26.0925 16.94L26.0963 16.9375ZM13.5538 18.6725C13.8888 18.7012 14.1512 18.7013 14.735 18.7013C16.4412 18.7013 18.045 18.1038 18.045 15.785C18.045 13.9325 16.8925 13 14.9538 13C14.37 13 13.8163 13.0288 13.5538 13.0438V18.6725ZM10.9575 10.9225C10.9575 10.82 11.1613 10.7475 11.2787 10.7475C12.5322 10.6963 13.7867 10.6721 15.0413 10.675C19.0812 10.675 20.6562 12.8912 20.6562 15.7212C20.6562 19.425 17.9725 21.015 14.6775 21.015C14.1237 21.015 13.9338 20.9862 13.54 20.9862V26.5862C13.54 26.7025 13.4963 26.7612 13.365 26.7612H11.1337C11.0175 26.7612 10.9587 26.7175 10.9587 26.5862V10.9288L10.9575 10.9225Z" fill="#31C5F0"/>
</svg>
