<svg width="147" height="40" viewBox="0 0 147 40" fill="none" xmlns="http://www.w3.org/2000/svg">
<g clip-path="url(#clip0)">
<path d="M77.8489 9.96201C82.3448 9.96201 86.7585 13.526 86.7585 19.9571V20.0391C86.7585 26.4293 82.3856 30.0339 77.8489 30.0339C74.6612 30.0339 72.6586 28.4365 71.31 26.6342V33.4342C71.3124 34.0094 71.0902 34.5627 70.6909 34.9758C70.2917 35.3889 69.747 35.629 69.1734 35.6449L69.103 35.646C67.9178 35.646 66.9371 34.663 66.9371 33.4751V12.2561C66.896 11.0682 67.8771 10.0849 69.0622 10.044H69.103C69.6769 10.0415 70.2289 10.2642 70.6411 10.6643C71.0533 11.0645 71.293 11.6104 71.3089 12.1853L71.31 12.2561V13.5669C72.7404 11.5597 74.743 9.96201 77.8489 9.96201ZM136.047 9.92114C139.103 9.92114 141.091 11.4685 142.517 13.4308L142.586 13.5257V12.215L142.587 12.1445C142.602 11.582 142.832 11.0468 143.229 10.6488C143.626 10.2508 144.16 10.0202 144.721 10.0043L144.793 10.0032H144.834C146.036 10.0434 147.003 10.9896 147.001 12.1853L147 12.2561V25.6921C147 28.928 146.141 31.345 144.548 32.9424C142.831 34.7039 140.134 35.5232 136.66 35.5232C134.085 35.5232 131.551 34.9496 129.222 33.8026C128.486 33.5568 127.996 32.8196 127.996 32.0414C128.037 31.017 128.854 30.2388 129.875 30.2388C130.162 30.2388 130.407 30.28 130.652 30.4029C132.45 31.4268 134.494 31.9183 136.537 31.9183C140.256 31.9183 142.382 30.116 142.586 26.6342C141.237 28.3954 139.235 29.9931 136.047 29.9931C131.556 29.9931 127.225 26.4601 127.139 20.1888L127.137 19.998V19.9163C127.137 13.4849 131.551 9.92114 136.047 9.92114ZM118.595 10.044C122.928 10.044 125.421 12.9525 125.421 17.4175V27.781C125.462 28.9689 124.522 29.9111 123.336 29.9522H123.255C122.07 29.9931 121.089 29.0101 121.048 27.8221V18.7692C121.048 15.779 119.577 14.0584 116.92 14.0584C114.386 14.0584 112.588 15.8607 112.588 18.8512V27.8221C112.589 28.1129 112.533 28.4011 112.422 28.67C112.312 28.9388 112.149 29.1831 111.944 29.3888C111.739 29.5944 111.495 29.7573 111.227 29.868C110.959 29.9787 110.671 30.0351 110.381 30.0339C110.091 30.0352 109.803 29.9788 109.535 29.8681C109.267 29.7574 109.023 29.5945 108.818 29.3889C108.613 29.1832 108.45 28.9389 108.34 28.67C108.229 28.4011 108.173 28.113 108.174 27.8221L108.215 12.297C108.174 11.1091 109.155 10.126 110.34 10.0849H110.381C110.955 10.0824 111.507 10.3051 111.919 10.7053C112.331 11.1055 112.571 11.6515 112.587 12.2265L112.588 12.297V13.1983C113.896 11.1499 116.184 9.96201 118.595 10.044ZM57.7823 10.0032C59.9075 10.044 61.9511 10.5767 63.8308 11.5597C64.4849 11.8875 64.8934 12.5019 64.8934 13.2391C64.8934 14.2221 64.076 15.0414 63.0952 15.0414H63.0545C62.7682 15.0414 62.4823 14.9597 62.196 14.8368C60.8064 14.0584 59.2945 13.608 57.7005 13.526C55.9841 13.526 55.0031 14.345 55.0031 15.4103V15.4921C55.0031 16.9257 57.0875 17.4993 59.3353 18.2365L59.5196 18.2935L59.7048 18.3516C59.921 18.4201 60.1383 18.4921 60.3548 18.5675L60.5406 18.6331C62.9818 19.5099 65.3023 20.8938 65.3023 23.8486V23.9306C65.3023 27.9859 62.1553 29.9931 58.1908 29.9931C55.5753 29.9522 53.0005 29.1738 50.8345 27.6993C50.3034 27.3712 49.9761 26.798 50.0171 26.1836C50.0171 25.2006 50.7935 24.3813 51.7742 24.3813H51.8153C52.1423 24.3813 52.4693 24.463 52.7553 24.627C54.3901 25.7738 56.3109 26.3882 58.2727 26.4702C60.1527 26.4702 61.256 25.6509 61.256 24.381V24.2993C61.256 22.7836 59.2127 22.2921 56.9649 21.5957C56.7298 21.5275 56.4923 21.457 56.2543 21.3827L56.0757 21.3266C53.5153 20.5099 50.9571 19.2455 50.9571 15.9427V15.8607C50.9571 12.215 53.9815 10.0032 57.7823 10.0032ZM103.76 10.0849C104.334 10.0824 104.886 10.3051 105.298 10.7053C105.71 11.1055 105.95 11.6515 105.966 12.2265L105.967 12.297V27.8221C105.967 29.0509 104.986 29.9931 103.76 29.9931C102.534 29.9931 101.594 29.0101 101.594 27.8221V12.297C101.553 11.1091 102.534 10.126 103.719 10.0849H103.76ZM99.8366 11.8878V12.2152C99.8366 13.2803 99.1011 14.1816 98.0795 14.3453C94.9322 14.878 92.807 17.6224 92.807 21.4322V27.7813C92.807 29.0101 91.8263 29.9525 90.6003 29.9525C89.4384 29.9525 88.4728 29.0469 88.4355 27.8921L88.4341 27.8221V27.7813L88.4751 12.2561C88.4341 11.0685 89.4151 10.0852 90.6003 10.0443H90.6411C91.2149 10.0418 91.767 10.2645 92.1792 10.6646C92.5914 11.0648 92.8311 11.6107 92.847 12.1856L92.8481 12.2564V13.3211C93.0522 11.6829 95.7496 10.0443 97.6707 10.0443C98.774 9.96229 99.7551 10.7816 99.8366 11.8878ZM76.8682 13.8129C73.8848 13.8129 71.269 16.3116 71.269 19.9574V20.0394C71.269 23.726 73.8845 26.1839 76.8682 26.1839C79.8515 26.1839 82.3448 23.8489 82.3448 20.0394V19.9574C82.3448 16.2296 79.8515 13.8129 76.8682 13.8129ZM137.068 13.7721C134.116 13.7721 131.643 16.1393 131.593 19.8017L131.592 19.9165V19.9983C131.592 23.8081 134.044 26.1839 137.068 26.1839C140.062 26.1839 142.655 23.7358 142.668 20.1108L142.668 19.9986V19.9165C142.668 16.2705 140.052 13.7721 137.068 13.7721ZM106.008 4.67798V4.7597C106.009 5.05054 105.953 5.33874 105.843 5.60767C105.732 5.8766 105.57 6.12095 105.364 6.3266C105.159 6.53226 104.915 6.69515 104.647 6.80589C104.379 6.91662 104.091 6.97301 103.801 6.97179C103.511 6.97301 103.223 6.91662 102.955 6.80589C102.687 6.69515 102.443 6.53226 102.238 6.3266C102.033 6.12095 101.87 5.8766 101.76 5.60767C101.649 5.33874 101.593 5.05054 101.594 4.7597C101.592 4.18454 101.814 3.63124 102.213 3.21808C102.612 2.80492 103.157 2.5647 103.73 2.54877L103.801 2.54762C104.986 2.50675 105.967 3.48977 106.008 4.67798Z" fill="#6DB33F"/>
<path d="M6.04166 5.57894C13.8884 -2.04005 26.4356 -1.83544 34.0371 6.07046C34.8956 4.92369 35.6312 3.65376 36.1623 2.34297C38.6553 9.96197 40.1675 16.3525 39.5953 21.309C39.3093 25.4871 37.6745 29.5015 34.9771 32.6966C27.9475 41.0532 15.4416 42.1182 7.10454 35.0725L6.94405 34.9297L6.9162 34.9105C6.8203 34.8423 6.73211 34.7639 6.65321 34.6765L6.6311 34.6509L6.36868 34.4172C6.12349 34.2066 5.8783 33.9956 5.65866 33.7594L5.55128 33.6388C-2.05052 25.7741 -1.80504 13.1982 6.04166 5.57894ZM8.98453 32.246C8.24867 31.6725 7.18608 31.7545 6.61387 32.4918C6.11516 33.1346 6.11315 34.0264 6.60842 34.6247L6.6311 34.6509L6.94405 34.9297L6.97477 34.9507C7.68278 35.4181 8.63369 35.3269 9.18465 34.6774L9.22944 34.6218C9.80165 33.8846 9.67905 32.8195 8.98425 32.246H8.98453ZM35.9576 4.39132C33.9142 8.69261 28.8465 11.9694 24.4732 12.9936C22.7888 13.3948 21.1924 13.4958 19.6346 13.5749L19.1683 13.5985C17.075 13.7035 15.0425 13.8195 12.9484 14.6322C4.28398 17.9502 4.44763 28.273 9.18838 30.6077L9.47434 30.7718C9.47434 30.7718 12.6116 30.1464 15.8499 29.3027L16.1399 29.2264L16.2852 29.1879L16.5751 29.1102C17.928 28.7447 19.2585 28.3467 20.3457 27.9453C25.9857 25.8561 32.1976 20.6946 34.2413 14.7142C33.1787 20.9404 27.8246 26.962 22.4709 29.7067C19.6102 31.1812 17.4032 31.509 12.7032 33.1476C12.3576 33.2712 12.0167 33.4078 11.6814 33.5571L11.7623 33.5461L11.9234 33.5248L12.0836 33.5047C13.1206 33.3758 14.0517 33.3113 14.0517 33.3113C20.7135 32.9836 31.1761 35.1956 36.0394 28.6825C41.0254 22.0466 38.2464 11.3142 35.9576 4.39132Z" fill="#6DB33F"/>
<path d="M8.984 32.2461C9.6788 32.8196 9.8014 33.8846 9.22919 34.6219C8.65698 35.3595 7.59439 35.4412 6.85881 34.8677C6.12324 34.2944 6.04141 33.2294 6.61362 32.4918C7.18583 31.7546 8.24842 31.6726 8.984 32.2461ZM35.9579 4.39111C38.2462 11.314 41.0254 22.0464 36.0395 28.6823C31.1758 35.1954 20.7136 32.9833 14.0518 33.3111C14.0518 33.3111 12.8666 33.3931 11.6814 33.5569C11.6814 33.5569 12.131 33.3523 12.7032 33.1474C17.4032 31.5088 19.6102 31.181 22.4707 29.7065C27.8247 26.9618 33.1787 20.9402 34.2413 14.7137C32.1976 20.6944 25.9857 25.8561 20.3458 27.9451C19.3363 28.3177 18.1167 28.6875 16.8649 29.0311L16.5755 29.11C13.0974 30.0495 9.47438 30.7715 9.47438 30.7715L9.18842 30.6075C4.44767 28.2728 4.28402 17.95 12.9484 14.632C16.7492 13.1572 20.3458 13.9764 24.4735 12.9934C28.8465 11.9692 33.9143 8.69241 35.9579 4.39111Z" fill="white"/>
</g>
<defs>
<clipPath id="clip0">
<rect width="147" height="40" fill="white"/>
</clipPath>
</defs>
</svg>
