<svg width="40" height="40" viewBox="0 0 40 40" fill="none" xmlns="http://www.w3.org/2000/svg">
<g clip-path="url(#clip0)">
<path d="M39.2087 9.03323C39.2233 9.08641 39.2308 9.14126 39.2308 9.19641V17.7673C39.2308 17.9913 39.1097 18.1981 38.9131 18.3094L31.6375 22.4514V30.6605C31.6375 30.7703 31.6083 30.8783 31.5529 30.9734C31.4974 31.0686 31.4176 31.1477 31.3215 31.2028L16.1337 39.8472C16.0989 39.8666 16.061 39.879 16.023 39.8925C16.0088 39.897 15.9954 39.9057 15.9804 39.9096C15.8742 39.9372 15.7626 39.9372 15.6564 39.9096C15.639 39.905 15.6232 39.8955 15.6066 39.8893C15.5719 39.8767 15.5355 39.8658 15.5024 39.8472L0.317677 31.2026C0.221185 31.1479 0.141007 31.0689 0.085232 30.9737C0.0294568 30.8785 5.75226e-05 30.7705 0 30.6605L0 4.94777C0 4.89141 0.00796875 4.83671 0.0220673 4.78368C0.0268179 4.76565 0.0378516 4.74929 0.0442879 4.73126C0.0560877 4.69853 0.0672746 4.66489 0.0845913 4.63444C0.0963912 4.61414 0.113708 4.59777 0.12796 4.57898C0.146196 4.55398 0.162746 4.52823 0.184047 4.50626C0.202284 4.48838 0.226037 4.47505 0.246572 4.45944C0.269558 4.44065 0.28994 4.42035 0.315992 4.4055H0.316758L7.90944 0.0833784C8.00559 0.0286711 8.11458 -0.00012207 8.22551 -0.00012207C8.33644 -0.00012207 8.44543 0.0286711 8.54158 0.0833784L16.1343 4.4055H16.1358C16.1611 4.42126 16.1825 4.44065 16.2054 4.45868C16.2259 4.47429 16.2489 4.48838 16.267 4.50565C16.2892 4.52823 16.305 4.55414 16.3238 4.57898C16.3373 4.59777 16.3556 4.61414 16.3666 4.63444C16.3847 4.66565 16.3949 4.69853 16.4077 4.73141C16.4139 4.74929 16.425 4.76565 16.4297 4.78444C16.4443 4.83762 16.4518 4.89262 16.4519 4.94777V21.0075L22.7788 17.4055V9.19565C22.7788 9.14111 22.7868 9.0855 22.801 9.03323C22.8066 9.01444 22.8168 8.99808 22.8231 8.9802C22.8358 8.94732 22.8469 8.91353 22.8642 8.88323C22.876 8.86292 22.8933 8.84656 22.9069 8.82777C22.9258 8.80277 22.9416 8.77701 22.9636 8.75504C22.982 8.73717 23.0049 8.72383 23.0254 8.70823C23.0492 8.68944 23.0697 8.66914 23.095 8.65429H23.0957L30.6892 4.33217C30.7853 4.27739 30.8943 4.24855 31.0053 4.24855C31.1162 4.24855 31.2252 4.27739 31.3213 4.33217L38.914 8.65429C38.9408 8.66989 38.9614 8.68944 38.9851 8.70732C39.0047 8.72308 39.0277 8.73717 39.046 8.75429C39.068 8.77701 39.0838 8.80277 39.1027 8.82777C39.1171 8.84656 39.1344 8.86292 39.1456 8.88323C39.1637 8.91353 39.1739 8.94732 39.1865 8.9802C39.1937 8.99808 39.204 9.01444 39.2087 9.03323ZM37.9651 17.4057V10.2784L35.308 11.7907L31.6373 13.8803V21.0076L37.9659 17.4057H37.9651ZM30.3724 30.2988V23.1666L26.7617 25.2055L16.4512 31.0237V38.2228L30.3724 30.2985V30.2988ZM1.26565 6.02959V30.2988L15.1854 38.2222V31.0244L7.91358 26.9554L7.91128 26.9538L7.90822 26.9523C7.8837 26.9382 7.86301 26.9179 7.84018 26.9008C7.82026 26.885 7.79742 26.8726 7.78011 26.8554L7.77857 26.8531C7.75804 26.8335 7.74379 26.8093 7.72647 26.7875C7.71053 26.7663 7.69168 26.7484 7.67896 26.7266L7.6782 26.7241C7.66395 26.7008 7.65521 26.6726 7.64494 26.6461C7.63468 26.6226 7.62134 26.6007 7.61491 26.5758V26.575C7.60709 26.5453 7.60556 26.514 7.60234 26.4835C7.59928 26.4602 7.59284 26.4367 7.59284 26.4132V9.63171L3.92277 7.54111L1.26565 6.0305V6.02959ZM8.22636 1.34732L1.90009 4.94777L8.22482 8.54808L14.5502 4.94686L8.22482 1.34732H8.22636ZM11.5162 23.8167L15.1861 21.7279V6.02959L12.5293 7.54202L8.85834 9.63156V25.3297L11.5162 23.8167ZM31.0052 5.59611L24.6798 9.19641L31.0052 12.7969L37.3298 9.19565L31.0053 5.59611H31.0052ZM30.3723 13.8803L26.7016 11.7907L24.0446 10.2784V17.4057L27.7145 19.4946L30.3724 21.0076V13.8803H30.3723ZM15.8175 29.9419L25.0954 24.7049L29.7332 22.0879L23.4125 18.4899L16.135 22.6323L9.50227 26.4078L15.8175 29.9419Z" fill="#FF2D20"/>
</g>
<defs>
<clipPath id="clip0">
<rect width="39.2308" height="40" fill="white"/>
</clipPath>
</defs>
</svg>
