<svg width="66" height="66" viewBox="0 0 66 66" fill="none" xmlns="http://www.w3.org/2000/svg">
<circle cx="33" cy="33" r="33" fill="#EDEDED"/>
<path d="M33 14C21.9542 14 13 22.5436 13 33.0831C13 43.6225 21.9542 52.1661 33 52.1661C44.0458 52.1661 53 43.6225 53 33.0831C53 22.5436 44.0458 14 33 14ZM37.7375 27.1872H34.7313C34.375 27.1872 33.9792 27.6345 33.9792 28.2288V30.3001H37.7396L37.1708 33.254H33.9792V42.1217H30.4312V33.254H27.2125V30.3001H30.4312V28.5628C30.4312 26.07 32.2438 24.0445 34.7313 24.0445H37.7375V27.1872Z" fill="#395185"/>
</svg>
