<svg width="40" height="40" viewBox="0 0 40 40" fill="none" xmlns="http://www.w3.org/2000/svg">
<path d="M20.0303 27.0487C23.9763 27.0487 27.1753 23.8498 27.1753 19.9037C27.1753 15.9577 23.9763 12.7587 20.0303 12.7587C16.0842 12.7587 12.8853 15.9577 12.8853 19.9037C12.8853 23.8498 16.0842 27.0487 20.0303 27.0487Z" fill="#4E8EF7"/>
<path d="M34.6099 7.78001C34.6102 7.30898 34.475 6.8478 34.2204 6.45149C33.9658 6.05518 33.6026 5.74048 33.1741 5.54493C32.7456 5.34938 32.2698 5.28123 31.8036 5.34863C31.3374 5.41602 30.9005 5.61611 30.5449 5.92501C27.0028 3.25923 22.5816 2.03567 18.173 2.50108C13.7643 2.96648 9.69608 5.08623 6.78868 8.43286C3.88129 11.7795 2.35099 16.1041 2.50638 20.5345C2.66177 24.9649 4.49129 29.1717 7.62601 32.3064C10.7607 35.4411 14.9675 37.2706 19.3979 37.426C23.8283 37.5814 28.1529 36.0511 31.4995 33.1437C34.8462 30.2363 36.9659 26.1681 37.4313 21.7594C37.8967 17.3508 36.6732 12.9296 34.0074 9.38751C34.396 8.94217 34.6101 8.37108 34.6099 7.78001ZM20.0286 36.815C17.3497 36.8159 14.7088 36.1802 12.3236 34.9605C9.93838 33.7408 7.87708 31.9718 6.30947 29.7994C4.74187 27.6269 3.71281 25.1131 3.30707 22.465C2.90133 19.817 3.13051 17.1104 3.97574 14.5682C4.82097 12.0261 6.25806 9.72108 8.16863 7.84314C10.0792 5.9652 12.4086 4.56803 14.9649 3.76673C17.5213 2.96542 20.2314 2.7829 22.8721 3.2342C25.5128 3.6855 28.0085 4.75771 30.1536 6.36251C29.8185 6.83538 29.6615 7.41154 29.7104 7.98904C29.7593 8.56654 30.0109 9.10812 30.4207 9.51793C30.8305 9.92774 31.3721 10.1794 31.9496 10.2282C32.5271 10.2771 33.1033 10.1201 33.5761 9.78501C35.4563 12.2981 36.5997 15.2851 36.8782 18.4113C37.1567 21.5375 36.5594 24.6795 35.153 27.4854C33.7467 30.2913 31.587 32.6502 28.9157 34.298C26.2445 35.9458 23.1672 36.8173 20.0286 36.815Z" fill="#4E8EF7"/>
</svg>
