<svg width="66" height="66" viewBox="0 0 66 66" fill="none" xmlns="http://www.w3.org/2000/svg">
<circle cx="33" cy="33" r="33" fill="#EDEDED"/>
<path fill-rule="evenodd" clip-rule="evenodd" d="M33 13C21.95 13 13 21.95 13 33C13 41.85 18.725 49.325 26.675 51.975C27.675 52.15 28.05 51.55 28.05 51.025C28.05 50.55 28.025 48.975 28.025 47.3C23 48.225 21.7 46.075 21.3 44.95C21.075 44.375 20.1 42.6 19.25 42.125C18.55 41.75 17.55 40.825 19.225 40.8C20.8 40.775 21.925 42.25 22.3 42.85C24.1 45.875 26.975 45.025 28.125 44.5C28.3 43.2 28.825 42.325 29.4 41.825C24.95 41.325 20.3 39.6 20.3 31.95C20.3 29.775 21.075 27.975 22.35 26.575C22.15 26.075 21.45 24.025 22.55 21.275C22.55 21.275 24.225 20.75 28.05 23.325C29.65 22.875 31.35 22.65 33.05 22.65C34.75 22.65 36.45 22.875 38.05 23.325C41.875 20.725 43.55 21.275 43.55 21.275C44.65 24.025 43.95 26.075 43.75 26.575C45.025 27.975 45.8 29.75 45.8 31.95C45.8 39.625 41.125 41.325 36.675 41.825C37.4 42.45 38.025 43.65 38.025 45.525C38.025 48.2 38 50.35 38 51.025C38 51.55 38.375 52.175 39.375 51.975C43.3454 50.6346 46.7954 48.0829 49.2396 44.6791C51.6838 41.2752 52.9989 37.1905 53 33C53 21.95 44.05 13 33 13Z" fill="black"/>
</svg>
