<svg width="66" height="66" viewBox="0 0 66 66" fill="none" xmlns="http://www.w3.org/2000/svg">
<circle cx="33" cy="33" r="33" fill="#EDEDED"/>
<g clip-path="url(#clip0)">
<path d="M47.0809 47.0818H41.1542V37.8001C41.1542 35.5868 41.1146 32.7376 38.0717 32.7376C34.9848 32.7376 34.5125 35.1492 34.5125 37.639V47.0812H28.5859V27.9943H34.2754V30.6028H34.3551C34.9245 29.6292 35.7473 28.8282 36.7359 28.2853C37.7244 27.7423 38.8418 27.4777 39.9689 27.5195C45.9759 27.5195 47.0834 31.4707 47.0834 36.611L47.0809 47.0818ZM21.8984 25.3854C19.9989 25.3857 18.4587 23.846 18.4584 21.9465C18.4581 20.047 19.9976 18.5068 21.8971 18.5065C23.7967 18.506 25.3368 20.0457 25.3371 21.9453C25.3373 22.8574 24.9751 23.7323 24.3302 24.3775C23.6853 25.0226 22.8106 25.3852 21.8984 25.3854ZM24.8618 47.082H18.9289V27.9943H24.8617V47.0818L24.8618 47.082ZM50.0356 13.0023H15.9507C14.3398 12.9842 13.0187 14.2746 12.999 15.8856V50.1126C13.0181 51.7243 14.339 53.016 15.9506 52.9992H50.0356C51.6506 53.0192 52.9767 51.7274 52.999 50.1126V15.8829C52.9761 14.2688 51.6498 12.9785 50.0356 12.9996" fill="#0A66C2"/>
</g>
<defs>
<clipPath id="clip0">
<rect width="40" height="40" fill="white" transform="translate(13 13)"/>
</clipPath>
</defs>
</svg>
