<svg width="40" height="40" viewBox="0 0 40 40" fill="none" xmlns="http://www.w3.org/2000/svg">
<path d="M6.08485 5.61658C13.9876 -2.05373 26.6246 -1.84774 34.2804 6.1114C35.145 4.95691 35.8858 3.67843 36.4208 2.35881C38.9316 10.0291 40.4546 16.4627 39.8783 21.4526C39.5903 25.6589 37.9438 29.7003 35.2271 32.9169C28.1473 41.3297 15.552 42.402 7.15533 35.3087L6.99368 35.165L6.96564 35.1456C6.86905 35.077 6.78023 34.998 6.70076 34.9101L6.6785 34.8843L6.4142 34.6491C6.16726 34.437 5.92032 34.2247 5.69911 33.9868L5.59096 33.8654C-2.06517 25.9477 -1.81794 13.2872 6.08485 5.61658V5.61658ZM9.04876 32.4632C8.30763 31.8858 7.23745 31.9684 6.66115 32.7106C6.15887 33.3578 6.15685 34.2557 6.65565 34.858L6.6785 34.8843L6.99368 35.165L7.02462 35.1862C7.7377 35.6567 8.6954 35.5648 9.2503 34.911L9.29541 34.8551C9.87171 34.1128 9.74824 33.0406 9.04847 32.4632H9.04876ZM36.2146 4.42096C34.1567 8.75122 29.0527 12.0501 24.6482 13.0812C22.9516 13.485 21.3439 13.5867 19.7749 13.6664L19.3053 13.6902C17.197 13.7959 15.1501 13.9127 13.0409 14.7308C4.3146 18.0711 4.47942 28.4635 9.25406 30.8139L9.54207 30.9791C9.54207 30.9791 12.7017 30.3495 15.9632 29.5001L16.2552 29.4233L16.4016 29.3845L16.6936 29.3063C18.0561 28.9384 19.3961 28.5377 20.4912 28.1335C26.1715 26.0303 32.4278 20.8341 34.486 14.8134C33.4158 21.0815 28.0235 27.1436 22.6315 29.9069C19.7503 31.3913 17.5276 31.7213 12.794 33.3709C12.4459 33.4954 12.1026 33.6329 11.7649 33.7831L11.8464 33.7721L12.0086 33.7507L12.17 33.7304C13.2144 33.6006 14.1522 33.5357 14.1522 33.5357C20.8616 33.2058 31.3989 35.4327 36.297 28.8758C41.3186 22.1951 38.5198 11.3905 36.2146 4.42096V4.42096Z" fill="#6DB33F"/>
<path d="M9.04817 32.4632C9.74794 33.0406 9.87141 34.1128 9.29511 34.855C8.71881 35.5976 7.64862 35.6798 6.90779 35.1025C6.16696 34.5254 6.08455 33.4532 6.66085 32.7106C7.23715 31.9684 8.30733 31.8858 9.04817 32.4632ZM36.2149 4.42065C38.5195 11.3902 41.3186 22.1948 36.297 28.8755C31.3986 35.4324 20.8616 33.2054 14.1522 33.5354C14.1522 33.5354 12.9585 33.618 11.7648 33.7828C11.7648 33.7828 12.2177 33.5769 12.794 33.3706C17.5275 31.721 19.7503 31.391 22.6312 29.9065C28.0235 27.1433 33.4158 21.0812 34.486 14.8128C32.4277 20.8338 26.1714 26.0303 20.4912 28.1332C19.4745 28.5084 18.2461 28.8807 16.9854 29.2266L16.6939 29.306C13.191 30.2519 9.54205 30.9788 9.54205 30.9788L9.25405 30.8136C4.47941 28.4632 4.31459 18.0708 13.0409 14.7305C16.8688 13.2457 20.4912 14.0705 24.6484 13.0809C29.0527 12.0498 34.1566 8.75092 36.2149 4.42065V4.42065Z" fill="white"/>
</svg>
